<svg width="78" height="78" viewBox="0 0 78 78" fill="none" xmlns="http://www.w3.org/2000/svg">
<path d="M38.7707 58.9944C49.7405 58.9944 58.6334 50.1015 58.6334 39.1316C58.6334 28.1618 49.7405 19.2689 38.7707 19.2689C27.8008 19.2689 18.908 28.1618 18.908 39.1316C18.908 50.1015 27.8008 58.9944 38.7707 58.9944Z" fill="#FFB300"/>
<mask id="path-2-inside-1_149_253" fill="white">
<path d="M43.3049 68.6967C42.9388 68.7173 42.5792 68.594 42.3028 68.353C42.0265 68.112 41.8554 67.7724 41.8261 67.4069C41.7968 67.0414 41.9117 66.679 42.1461 66.397C42.3805 66.1151 42.716 65.936 43.0807 65.8981C43.5195 65.8299 43.9583 65.7519 44.397 65.6544C44.7617 65.5781 45.1417 65.6498 45.4535 65.8537C45.7653 66.0576 45.9833 66.377 46.0596 66.7416C46.1359 67.1062 46.0642 67.4863 45.8603 67.798C45.6564 68.1098 45.337 68.3278 44.9724 68.4041C44.4946 68.5114 43.9973 68.5992 43.5292 68.6772L43.3049 68.6967ZM34.1488 68.6967H33.9148C33.4272 68.6187 32.9397 68.5211 32.4716 68.4236C32.2911 68.3852 32.1198 68.3116 31.9677 68.207C31.8156 68.1025 31.6856 67.9689 31.5851 67.8141C31.4846 67.6593 31.4156 67.4861 31.382 67.3046C31.3484 67.1231 31.3508 66.9368 31.3893 66.7562C31.4277 66.5757 31.5013 66.4045 31.6059 66.2523C31.7104 66.1002 31.844 65.9702 31.9988 65.8697C32.1536 65.7692 32.3268 65.7002 32.5083 65.6666C32.6898 65.633 32.8761 65.6354 33.0567 65.6739C33.4955 65.7714 33.9343 65.8494 34.3731 65.9176C34.7378 65.9555 35.0732 66.1346 35.3076 66.4165C35.5421 66.6985 35.6569 67.0609 35.6276 67.4264C35.5983 67.7919 35.4272 68.1315 35.1509 68.3725C34.8745 68.6135 34.5149 68.7368 34.1488 68.7162V68.6967ZM48.7752 67.2828C48.4451 67.2848 48.1249 67.1705 47.8707 66.9599C47.6165 66.7493 47.4446 66.4559 47.3852 66.1311C47.3259 65.8064 47.3828 65.4712 47.5461 65.1842C47.7093 64.8973 47.9684 64.6771 48.2779 64.5623C48.6972 64.4062 49.1165 64.2405 49.5261 64.065C49.6975 63.9756 49.8856 63.9226 50.0786 63.9093C50.2715 63.896 50.4651 63.9227 50.6472 63.9877C50.8293 64.0527 50.9961 64.1547 51.137 64.2872C51.2778 64.4196 51.3898 64.5798 51.4659 64.7576C51.542 64.9354 51.5806 65.1269 51.5792 65.3203C51.5778 65.5137 51.5364 65.7047 51.4578 65.8814C51.3791 66.058 51.2648 66.2165 51.122 66.3469C50.9792 66.4773 50.811 66.5769 50.6279 66.6392C50.1794 66.8342 49.7211 67.0195 49.2628 67.195C49.0928 67.2495 48.9144 67.2726 48.7362 67.2633L48.7752 67.2828ZM28.7662 67.2828C28.5967 67.2822 28.4285 67.2525 28.2689 67.195C27.8107 67.0195 27.3524 66.8342 26.9038 66.6392C26.7341 66.567 26.5804 66.4619 26.4516 66.33C26.3229 66.198 26.2215 66.0418 26.1535 65.8704C26.0855 65.699 26.0522 65.5158 26.0554 65.3314C26.0587 65.1471 26.0985 64.9652 26.1725 64.7963C26.3223 64.4546 26.6012 64.186 26.9482 64.049C27.2952 63.912 27.6823 63.9178 28.0252 64.065C28.425 64.2405 28.8443 64.4062 29.2635 64.5623C29.573 64.6771 29.8322 64.8973 29.9954 65.1842C30.1587 65.4712 30.2156 65.8064 30.1563 66.1311C30.0969 66.4559 29.925 66.7493 29.6708 66.9599C29.4166 67.1705 29.0963 67.2848 28.7662 67.2828ZM53.8067 64.845C53.5024 64.844 53.2067 64.7441 52.9641 64.5604C52.7215 64.3768 52.5451 64.1193 52.4615 63.8267C52.3779 63.5341 52.3916 63.2222 52.5005 62.9381C52.6095 62.654 52.8078 62.4129 53.0657 62.2513C53.4459 62.0173 53.8165 61.7735 54.187 61.52C54.3388 61.415 54.5097 61.3409 54.6901 61.3019C54.8704 61.263 55.0567 61.26 55.2383 61.293C55.4198 61.3261 55.5931 61.3945 55.7481 61.4945C55.9032 61.5946 56.0371 61.7241 56.1421 61.8759C56.2471 62.0276 56.3212 62.1985 56.3601 62.3789C56.3991 62.5593 56.4021 62.7456 56.369 62.9271C56.336 63.1087 56.2675 63.2819 56.1675 63.437C56.0675 63.5921 55.9379 63.7259 55.7862 63.8309C55.3766 64.1137 54.9671 64.377 54.5478 64.6403C54.3062 64.76 54.0363 64.8106 53.7677 64.7865L53.8067 64.845ZM23.7347 64.845C23.4724 64.8452 23.2154 64.7708 22.9937 64.6305L21.7651 63.8212C21.6133 63.7162 21.4837 63.5823 21.3837 63.4272C21.2837 63.2722 21.2152 63.0989 21.1822 62.9174C21.1491 62.7358 21.1522 62.5495 21.1911 62.3692C21.2301 62.1888 21.3041 62.0179 21.4091 61.8661C21.5141 61.7144 21.648 61.5848 21.8031 61.4848C21.9582 61.3848 22.1314 61.3163 22.313 61.2833C22.4945 61.2502 22.6808 61.2532 22.8612 61.2922C23.0415 61.3311 23.2125 61.4052 23.3642 61.5102L24.4856 62.2513C24.6442 62.3489 24.7818 62.477 24.8904 62.6283C24.999 62.7796 25.0764 62.951 25.1182 63.1325C25.1599 63.3139 25.1652 63.5019 25.1336 63.6855C25.102 63.869 25.0342 64.0444 24.9341 64.2015C24.7892 64.3881 24.6002 64.5357 24.384 64.6311C24.1678 64.7264 23.9313 64.7664 23.6957 64.7475L23.7347 64.845ZM61.9683 57.2685C61.6747 57.2667 61.3888 57.1748 61.1492 57.0053C60.8514 56.7867 60.6511 56.4602 60.5909 56.0957C60.5308 55.7313 60.6157 55.3577 60.8274 55.0551C61.0907 54.6943 61.3442 54.3237 61.588 53.9532C61.6837 53.7886 61.8119 53.6452 61.9647 53.5317C62.1176 53.4181 62.2919 53.3369 62.4771 53.2928C62.6624 53.2488 62.8546 53.2429 63.0422 53.2755C63.2298 53.3081 63.4088 53.3785 63.5684 53.4824C63.7279 53.5863 63.8646 53.7216 63.9702 53.88C64.0759 54.0384 64.1481 54.2167 64.1827 54.4039C64.2173 54.5912 64.2134 54.7835 64.1713 54.9692C64.1293 55.1549 64.0499 55.3301 63.938 55.4841C63.6747 55.8937 63.4017 56.3032 63.1091 56.6932C62.964 56.8602 62.7815 56.9905 62.5765 57.0735C62.3714 57.1565 62.1497 57.19 61.9293 57.171L61.9683 57.2685ZM15.5634 57.1223C15.331 57.1272 15.1011 57.0734 14.8949 56.9661C14.6887 56.8587 14.5129 56.7012 14.3836 56.508C14.1008 56.1082 13.818 55.7084 13.5547 55.2891C13.4408 55.1344 13.3597 54.958 13.3167 54.7708C13.2736 54.5835 13.2694 54.3894 13.3044 54.2005C13.3393 54.0116 13.4127 53.8318 13.5199 53.6724C13.6271 53.513 13.7659 53.3773 13.9277 53.2736C14.0895 53.17 14.2709 53.1007 14.4605 53.07C14.6502 53.0392 14.8441 53.0478 15.0304 53.095C15.2166 53.1423 15.3912 53.2272 15.5432 53.3447C15.6953 53.4621 15.8217 53.6095 15.9145 53.7777C16.1582 54.1482 16.4118 54.5188 16.6751 54.8796C16.8883 55.1826 16.9731 55.5576 16.911 55.9229C16.8489 56.2882 16.6449 56.6142 16.3435 56.8297C16.1182 57.0023 15.8467 57.1041 15.5634 57.1223ZM64.7376 52.3443C64.5389 52.3444 64.3425 52.3012 64.1623 52.2175C63.9871 52.141 63.8292 52.0297 63.6983 51.8905C63.5673 51.7512 63.4659 51.5868 63.4003 51.4072C63.3347 51.2277 63.3062 51.0367 63.3164 50.8458C63.3267 50.6549 63.3756 50.4681 63.4602 50.2966C63.6422 49.9001 63.8177 49.4905 63.9867 49.068C64.1365 48.7336 64.4109 48.471 64.7516 48.3361C65.0923 48.2013 65.4722 48.205 65.8102 48.3464C66.1559 48.4874 66.4324 48.7585 66.5802 49.1014C66.7279 49.4443 66.735 49.8315 66.6 50.1796C66.4147 50.6281 66.2197 51.0864 66.0247 51.5252C65.9081 51.7669 65.7252 51.9704 65.4973 52.112C65.2694 52.2536 65.0059 52.3274 64.7376 52.3248V52.3443ZM12.7649 52.2468C12.4888 52.251 12.2176 52.1737 11.9852 52.0245C11.7527 51.8754 11.5695 51.661 11.4583 51.4082C11.2535 50.9597 11.0682 50.5111 10.883 50.0528C10.7459 49.7063 10.7521 49.3195 10.9002 48.9775C11.0484 48.6356 11.3263 48.3665 11.6728 48.2294C12.0193 48.0923 12.4061 48.0985 12.7481 48.2467C13.0901 48.3948 13.3592 48.6727 13.4962 49.0192C13.662 49.4385 13.8375 49.8481 14.0228 50.2576C14.1739 50.5977 14.1838 50.9839 14.0503 51.3312C13.9168 51.6786 13.6509 51.9588 13.311 52.1103C13.1407 52.194 12.9546 52.2406 12.7649 52.2468ZM66.5415 47.0203H66.2295C66.0494 46.9789 65.8793 46.9024 65.7289 46.7952C65.5784 46.6879 65.4506 46.5521 65.3528 46.3954C65.255 46.2387 65.189 46.0642 65.1588 45.8819C65.1285 45.6997 65.1345 45.5133 65.1763 45.3334C65.2739 44.9043 65.3616 44.4655 65.4396 44.0267C65.5043 43.6595 65.7122 43.333 66.0176 43.119C66.3229 42.9051 66.7008 42.8212 67.068 42.8859C67.4353 42.9505 67.7618 43.1584 67.9757 43.4638C68.1897 43.7692 68.2736 44.147 68.2089 44.5143C68.1211 45.0018 68.0236 45.4894 67.9164 45.9672C67.8361 46.2693 67.6572 46.536 67.4082 46.725C67.1591 46.914 66.8541 47.0145 66.5415 47.0105V47.0203ZM10.961 46.9228C10.643 46.9237 10.3343 46.8158 10.086 46.6172C9.83772 46.4186 9.66478 46.1411 9.59585 45.8307C9.47884 45.3529 9.38133 44.8556 9.29357 44.3875C9.26156 44.2057 9.26567 44.0193 9.30568 43.8391C9.34569 43.6588 9.42081 43.4882 9.52675 43.337C9.63268 43.1858 9.76737 43.0569 9.92311 42.9578C10.0789 42.8586 10.2526 42.7911 10.4344 42.7591C10.6163 42.7271 10.8026 42.7312 10.9829 42.7712C11.1631 42.8112 11.3337 42.8863 11.4849 42.9923C11.6361 43.0982 11.765 43.2329 11.8642 43.3886C11.9633 43.5444 12.0308 43.7181 12.0628 43.9C12.1409 44.3388 12.2286 44.7775 12.3261 45.2066C12.368 45.3865 12.374 45.5729 12.3437 45.7552C12.3134 45.9374 12.2475 46.1119 12.1497 46.2686C12.0518 46.4253 11.924 46.5612 11.7736 46.6684C11.6232 46.7756 11.4531 46.8521 11.273 46.8935C11.1763 46.9085 11.0784 46.915 10.9805 46.913L10.961 46.9228ZM66.9023 35.8554C66.5713 35.8578 66.2503 35.7424 65.9966 35.5298C65.743 35.3172 65.5732 35.0213 65.5176 34.6951C65.4396 34.2465 65.3616 33.8175 65.2641 33.3787C65.1801 33.014 65.2443 32.6309 65.4427 32.3137C65.6411 31.9964 65.9575 31.7709 66.3221 31.6869C66.6867 31.6028 67.0698 31.6671 67.3871 31.8655C67.7044 32.0639 67.9298 32.3802 68.0139 32.7449C68.1211 33.2227 68.2187 33.72 68.2967 34.188C68.3273 34.3705 68.3216 34.5573 68.2798 34.7376C68.238 34.918 68.161 35.0882 68.0531 35.2387C67.9453 35.3891 67.8088 35.5167 67.6514 35.6142C67.4941 35.7117 67.319 35.7771 67.1363 35.8067L66.9023 35.8554ZM10.6685 35.7579H10.4344C10.2526 35.7272 10.0786 35.661 9.92234 35.563C9.7661 35.465 9.63069 35.3372 9.52384 35.1869C9.417 35.0366 9.34081 34.8667 9.29962 34.687C9.25844 34.5072 9.25307 34.3211 9.28382 34.1392C9.36183 33.6517 9.45934 33.1642 9.55685 32.6864C9.59654 32.5058 9.67141 32.3348 9.77718 32.1832C9.88295 32.0316 10.0175 31.9023 10.1733 31.8027C10.329 31.7031 10.5029 31.6351 10.6849 31.6027C10.8669 31.5703 11.0535 31.5741 11.234 31.6137C11.4146 31.6534 11.5855 31.7283 11.7371 31.8341C11.8888 31.9398 12.0181 32.0744 12.1177 32.2302C12.2173 32.3859 12.2852 32.5598 12.3176 32.7418C12.3501 32.9238 12.3463 33.1104 12.3066 33.2909C12.2091 33.7297 12.1213 34.1588 12.0531 34.6073C11.9919 34.9301 11.8202 35.2215 11.5676 35.4315C11.3149 35.6414 10.997 35.7569 10.6685 35.7579ZM65.4396 30.4339C65.1524 30.4365 64.8712 30.351 64.6341 30.1889C64.3969 30.0267 64.2152 29.7957 64.1135 29.527C63.9575 29.1175 63.7917 28.6982 63.6162 28.2887C63.4747 27.9486 63.4726 27.5665 63.6102 27.2248C63.7478 26.8831 64.0142 26.6092 64.3519 26.4621C64.6896 26.315 65.0716 26.3065 65.4155 26.4384C65.7594 26.5703 66.0377 26.8321 66.1905 27.1673C66.3855 27.6159 66.5707 28.0741 66.7463 28.5324C66.8763 28.8817 66.8632 29.2681 66.7098 29.6078C66.5564 29.9474 66.2752 30.2128 65.9272 30.3461C65.7707 30.4025 65.6059 30.4322 65.4396 30.4339ZM12.1409 30.3461C11.9671 30.3469 11.7949 30.3138 11.6338 30.2486C11.4616 30.1828 11.3042 30.0835 11.1706 29.9565C11.0371 29.8295 10.93 29.6772 10.8556 29.5086C10.7813 29.3399 10.7411 29.1582 10.7374 28.9739C10.7338 28.7896 10.7667 28.6064 10.8342 28.4349C11.0097 27.9766 11.195 27.5183 11.39 27.0698C11.5413 26.7284 11.822 26.4611 12.1704 26.3267C12.5187 26.1923 12.9062 26.2018 13.2476 26.3531C13.589 26.5044 13.8562 26.7851 13.9906 27.1335C14.1251 27.4818 14.1156 27.8693 13.9643 28.2107C13.7888 28.6105 13.6132 29.0297 13.4572 29.4393C13.3561 29.7064 13.1759 29.9363 12.9407 30.0983C12.7055 30.2603 12.4265 30.3468 12.1409 30.3461ZM62.9434 25.4121C62.706 25.4127 62.4724 25.353 62.2644 25.2388C62.0564 25.1245 61.8807 24.9594 61.7538 24.7588C61.51 24.3785 61.2662 23.9982 61.0127 23.6375C60.9064 23.4864 60.8309 23.3158 60.7906 23.1355C60.7502 22.9553 60.7457 22.7688 60.7774 22.5868C60.8091 22.4048 60.8763 22.2308 60.9753 22.0748C61.0742 21.9188 61.2029 21.7838 61.354 21.6775C61.5051 21.5712 61.6756 21.4958 61.8559 21.4554C62.0362 21.415 62.2226 21.4105 62.4046 21.4422C62.5866 21.4739 62.7606 21.5412 62.9166 21.6401C63.0726 21.739 63.2076 21.8677 63.3139 22.0188C63.5934 22.4283 63.8665 22.8379 64.133 23.2474C64.233 23.4045 64.3008 23.5799 64.3324 23.7634C64.364 23.947 64.3588 24.1349 64.3171 24.3164C64.2753 24.4979 64.1979 24.6693 64.0893 24.8206C63.9807 24.9719 63.8431 25.1 63.6845 25.1976C63.4632 25.3389 63.2059 25.4134 62.9434 25.4121ZM14.6566 25.3341C14.405 25.3347 14.1579 25.2676 13.9411 25.14C13.7243 25.0124 13.5458 24.8288 13.4242 24.6086C13.3027 24.3884 13.2425 24.1395 13.25 23.888C13.2575 23.6366 13.3325 23.3917 13.467 23.1792C13.727 22.7631 14 22.3536 14.2861 21.9505C14.3885 21.791 14.5222 21.6538 14.6791 21.5473C14.836 21.4408 15.0129 21.3671 15.199 21.3308C15.3851 21.2946 15.5767 21.2963 15.7621 21.3361C15.9475 21.3759 16.123 21.4528 16.2778 21.5622C16.4327 21.6716 16.5639 21.8112 16.6633 21.9727C16.7627 22.1342 16.8284 22.3141 16.8565 22.5017C16.8845 22.6892 16.8742 22.8805 16.8263 23.064C16.7783 23.2475 16.6937 23.4193 16.5775 23.5692C16.324 23.9332 16.0802 24.3038 15.8462 24.6808C15.7173 24.8795 15.5412 25.0432 15.3336 25.1572C15.126 25.2712 14.8934 25.332 14.6566 25.3341ZM55.2791 17.2896C54.9849 17.2924 54.6976 17.2001 54.46 17.0263C54.0993 16.7728 53.7385 16.529 53.3582 16.2852C53.044 16.0848 52.8222 15.7678 52.7418 15.4039C52.6613 15.04 52.7287 14.659 52.9291 14.3448C53.1296 14.0306 53.4466 13.8089 53.8105 13.7284C54.1744 13.6479 54.5554 13.7153 54.8696 13.9157C55.2889 14.179 55.6984 14.4618 56.0982 14.7446C56.3397 14.9179 56.5201 15.1634 56.6132 15.4457C56.7063 15.728 56.7073 16.0326 56.6163 16.3156C56.5252 16.5986 56.3466 16.8454 56.1063 17.0204C55.8661 17.1954 55.5764 17.2897 55.2791 17.2896ZM22.3501 17.2896C22.1216 17.2848 21.8978 17.2235 21.6988 17.1112C21.4997 16.9989 21.3315 16.8391 21.2092 16.646C20.996 16.343 20.9112 15.9679 20.9733 15.6026C21.0354 15.2373 21.2394 14.9114 21.5408 14.6958C21.9438 14.4098 22.3534 14.1368 22.7694 13.8767C22.9249 13.7678 23.1009 13.6914 23.2867 13.6524C23.4725 13.6134 23.6644 13.6124 23.8506 13.6497C24.0368 13.6869 24.2135 13.7615 24.37 13.869C24.5266 13.9764 24.6597 14.1145 24.7613 14.2749C24.863 14.4353 24.9311 14.6147 24.9614 14.8021C24.9918 14.9896 24.9838 15.1812 24.938 15.3655C24.8921 15.5497 24.8094 15.7228 24.6948 15.8742C24.5801 16.0256 24.436 16.1521 24.2711 16.2462C23.9005 16.49 23.53 16.7338 23.1692 16.9971C22.9258 17.1564 22.6411 17.2412 22.3501 17.2408V17.2896ZM50.4621 14.5106C50.2633 14.5116 50.0668 14.4683 49.8868 14.3838L48.6582 13.867C48.4658 13.8198 48.2855 13.7323 48.1292 13.6104C47.973 13.4886 47.8443 13.335 47.7517 13.1598C47.659 12.9846 47.6045 12.7918 47.5917 12.5941C47.5789 12.3963 47.6081 12.1981 47.6774 12.0124C47.7466 11.8268 47.8544 11.6579 47.9936 11.5169C48.1329 11.3758 48.3003 11.2659 48.4851 11.1942C48.6698 11.1226 48.8677 11.0908 49.0656 11.1011C49.2635 11.1113 49.457 11.1634 49.6333 11.2537C50.0916 11.4293 50.5402 11.6243 50.9887 11.8193C51.282 11.9469 51.5229 12.1708 51.6716 12.454C51.8203 12.7371 51.8679 13.0626 51.8065 13.3764C51.7451 13.6903 51.5783 13.9738 51.3339 14.1801C51.0894 14.3863 50.7819 14.5029 50.4621 14.5106ZM27.2743 14.5106C26.9505 14.5139 26.6354 14.4051 26.3826 14.2027C26.1297 14.0003 25.9546 13.7167 25.8869 13.4C25.8192 13.0833 25.8631 12.7529 26.0111 12.4648C26.1591 12.1767 26.4021 11.9487 26.699 11.8193C27.1476 11.6243 27.6059 11.4293 28.0642 11.2537C28.4033 11.1592 28.7655 11.1954 29.0791 11.3553C29.3927 11.5152 29.6349 11.787 29.7575 12.117C29.8802 12.4469 29.8744 12.8109 29.7414 13.1369C29.6084 13.4628 29.3578 13.7269 29.0393 13.8767C28.62 14.0328 28.2104 14.2083 27.8009 14.3838C27.618 14.4553 27.4215 14.4853 27.2256 14.4716L27.2743 14.5106ZM45.0991 12.7359C44.9956 12.7508 44.8906 12.7508 44.7871 12.7359L43.4707 12.4726C43.2797 12.4516 43.0951 12.3917 42.9282 12.2965C42.7613 12.2013 42.6157 12.0728 42.5005 11.9191C42.3853 11.7653 42.3028 11.5896 42.2582 11.4027C42.2136 11.2158 42.2079 11.0218 42.2413 10.8326C42.2747 10.6434 42.3466 10.463 42.4525 10.3027C42.5585 10.1424 42.6962 10.0056 42.8571 9.90065C43.0181 9.79572 43.1988 9.72492 43.3882 9.69266C43.5776 9.6604 43.7716 9.66735 43.9583 9.71308C44.4458 9.79109 44.9333 9.8886 45.4014 9.99586C45.7433 10.0666 46.0466 10.2622 46.2521 10.5445C46.4576 10.8268 46.5505 11.1756 46.5127 11.5227C46.475 11.8698 46.3092 12.1904 46.0479 12.4219C45.7865 12.6534 45.4482 12.7793 45.0991 12.7749V12.7359ZM32.5496 12.7359C32.208 12.7297 31.8804 12.5992 31.6282 12.3688C31.3759 12.1384 31.2163 11.824 31.1792 11.4843C31.1421 11.1447 31.2301 10.8032 31.4268 10.5238C31.6234 10.2445 31.9151 10.0463 32.2473 9.96661C32.7251 9.85935 33.2224 9.76184 33.6905 9.67408C34.0589 9.61181 34.4369 9.69788 34.742 9.91347C35.0472 10.1291 35.2546 10.4567 35.3189 10.8247C35.351 11.0067 35.3466 11.1932 35.306 11.3735C35.2653 11.5537 35.1893 11.7241 35.0822 11.8747C34.9751 12.0253 34.8392 12.1532 34.6823 12.2508C34.5254 12.3484 34.3507 12.4139 34.1683 12.4434C33.7295 12.5214 33.2907 12.6091 32.8617 12.7066C32.7579 12.7163 32.6534 12.7163 32.5496 12.7066V12.7359Z"/>
</mask>
<path d="M43.3049 68.6967C42.9388 68.7173 42.5792 68.594 42.3028 68.353C42.0265 68.112 41.8554 67.7724 41.8261 67.4069C41.7968 67.0414 41.9117 66.679 42.1461 66.397C42.3805 66.1151 42.716 65.936 43.0807 65.8981C43.5195 65.8299 43.9583 65.7519 44.397 65.6544C44.7617 65.5781 45.1417 65.6498 45.4535 65.8537C45.7653 66.0576 45.9833 66.377 46.0596 66.7416C46.1359 67.1062 46.0642 67.4863 45.8603 67.798C45.6564 68.1098 45.337 68.3278 44.9724 68.4041C44.4946 68.5114 43.9973 68.5992 43.5292 68.6772L43.3049 68.6967ZM34.1488 68.6967H33.9148C33.4272 68.6187 32.9397 68.5211 32.4716 68.4236C32.2911 68.3852 32.1198 68.3116 31.9677 68.207C31.8156 68.1025 31.6856 67.9689 31.5851 67.8141C31.4846 67.6593 31.4156 67.4861 31.382 67.3046C31.3484 67.1231 31.3508 66.9368 31.3893 66.7562C31.4277 66.5757 31.5013 66.4045 31.6059 66.2523C31.7104 66.1002 31.844 65.9702 31.9988 65.8697C32.1536 65.7692 32.3268 65.7002 32.5083 65.6666C32.6898 65.633 32.8761 65.6354 33.0567 65.6739C33.4955 65.7714 33.9343 65.8494 34.3731 65.9176C34.7378 65.9555 35.0732 66.1346 35.3076 66.4165C35.5421 66.6985 35.6569 67.0609 35.6276 67.4264C35.5983 67.7919 35.4272 68.1315 35.1509 68.3725C34.8745 68.6135 34.5149 68.7368 34.1488 68.7162V68.6967ZM48.7752 67.2828C48.4451 67.2848 48.1249 67.1705 47.8707 66.9599C47.6165 66.7493 47.4446 66.4559 47.3852 66.1311C47.3259 65.8064 47.3828 65.4712 47.5461 65.1842C47.7093 64.8973 47.9684 64.6771 48.2779 64.5623C48.6972 64.4062 49.1165 64.2405 49.5261 64.065C49.6975 63.9756 49.8856 63.9226 50.0786 63.9093C50.2715 63.896 50.4651 63.9227 50.6472 63.9877C50.8293 64.0527 50.9961 64.1547 51.137 64.2872C51.2778 64.4196 51.3898 64.5798 51.4659 64.7576C51.542 64.9354 51.5806 65.1269 51.5792 65.3203C51.5778 65.5137 51.5364 65.7047 51.4578 65.8814C51.3791 66.058 51.2648 66.2165 51.122 66.3469C50.9792 66.4773 50.811 66.5769 50.6279 66.6392C50.1794 66.8342 49.7211 67.0195 49.2628 67.195C49.0928 67.2495 48.9144 67.2726 48.7362 67.2633L48.7752 67.2828ZM28.7662 67.2828C28.5967 67.2822 28.4285 67.2525 28.2689 67.195C27.8107 67.0195 27.3524 66.8342 26.9038 66.6392C26.7341 66.567 26.5804 66.4619 26.4516 66.33C26.3229 66.198 26.2215 66.0418 26.1535 65.8704C26.0855 65.699 26.0522 65.5158 26.0554 65.3314C26.0587 65.1471 26.0985 64.9652 26.1725 64.7963C26.3223 64.4546 26.6012 64.186 26.9482 64.049C27.2952 63.912 27.6823 63.9178 28.0252 64.065C28.425 64.2405 28.8443 64.4062 29.2635 64.5623C29.573 64.6771 29.8322 64.8973 29.9954 65.1842C30.1587 65.4712 30.2156 65.8064 30.1563 66.1311C30.0969 66.4559 29.925 66.7493 29.6708 66.9599C29.4166 67.1705 29.0963 67.2848 28.7662 67.2828ZM53.8067 64.845C53.5024 64.844 53.2067 64.7441 52.9641 64.5604C52.7215 64.3768 52.5451 64.1193 52.4615 63.8267C52.3779 63.5341 52.3916 63.2222 52.5005 62.9381C52.6095 62.654 52.8078 62.4129 53.0657 62.2513C53.4459 62.0173 53.8165 61.7735 54.187 61.52C54.3388 61.415 54.5097 61.3409 54.6901 61.3019C54.8704 61.263 55.0567 61.26 55.2383 61.293C55.4198 61.3261 55.5931 61.3945 55.7481 61.4945C55.9032 61.5946 56.0371 61.7241 56.1421 61.8759C56.2471 62.0276 56.3212 62.1985 56.3601 62.3789C56.3991 62.5593 56.4021 62.7456 56.369 62.9271C56.336 63.1087 56.2675 63.2819 56.1675 63.437C56.0675 63.5921 55.9379 63.7259 55.7862 63.8309C55.3766 64.1137 54.9671 64.377 54.5478 64.6403C54.3062 64.76 54.0363 64.8106 53.7677 64.7865L53.8067 64.845ZM23.7347 64.845C23.4724 64.8452 23.2154 64.7708 22.9937 64.6305L21.7651 63.8212C21.6133 63.7162 21.4837 63.5823 21.3837 63.4272C21.2837 63.2722 21.2152 63.0989 21.1822 62.9174C21.1491 62.7358 21.1522 62.5495 21.1911 62.3692C21.2301 62.1888 21.3041 62.0179 21.4091 61.8661C21.5141 61.7144 21.648 61.5848 21.8031 61.4848C21.9582 61.3848 22.1314 61.3163 22.313 61.2833C22.4945 61.2502 22.6808 61.2532 22.8612 61.2922C23.0415 61.3311 23.2125 61.4052 23.3642 61.5102L24.4856 62.2513C24.6442 62.3489 24.7818 62.477 24.8904 62.6283C24.999 62.7796 25.0764 62.951 25.1182 63.1325C25.1599 63.3139 25.1652 63.5019 25.1336 63.6855C25.102 63.869 25.0342 64.0444 24.9341 64.2015C24.7892 64.3881 24.6002 64.5357 24.384 64.6311C24.1678 64.7264 23.9313 64.7664 23.6957 64.7475L23.7347 64.845ZM61.9683 57.2685C61.6747 57.2667 61.3888 57.1748 61.1492 57.0053C60.8514 56.7867 60.6511 56.4602 60.5909 56.0957C60.5308 55.7313 60.6157 55.3577 60.8274 55.0551C61.0907 54.6943 61.3442 54.3237 61.588 53.9532C61.6837 53.7886 61.8119 53.6452 61.9647 53.5317C62.1176 53.4181 62.2919 53.3369 62.4771 53.2928C62.6624 53.2488 62.8546 53.2429 63.0422 53.2755C63.2298 53.3081 63.4088 53.3785 63.5684 53.4824C63.7279 53.5863 63.8646 53.7216 63.9702 53.88C64.0759 54.0384 64.1481 54.2167 64.1827 54.4039C64.2173 54.5912 64.2134 54.7835 64.1713 54.9692C64.1293 55.1549 64.0499 55.3301 63.938 55.4841C63.6747 55.8937 63.4017 56.3032 63.1091 56.6932C62.964 56.8602 62.7815 56.9905 62.5765 57.0735C62.3714 57.1565 62.1497 57.19 61.9293 57.171L61.9683 57.2685ZM15.5634 57.1223C15.331 57.1272 15.1011 57.0734 14.8949 56.9661C14.6887 56.8587 14.5129 56.7012 14.3836 56.508C14.1008 56.1082 13.818 55.7084 13.5547 55.2891C13.4408 55.1344 13.3597 54.958 13.3167 54.7708C13.2736 54.5835 13.2694 54.3894 13.3044 54.2005C13.3393 54.0116 13.4127 53.8318 13.5199 53.6724C13.6271 53.513 13.7659 53.3773 13.9277 53.2736C14.0895 53.17 14.2709 53.1007 14.4605 53.07C14.6502 53.0392 14.8441 53.0478 15.0304 53.095C15.2166 53.1423 15.3912 53.2272 15.5432 53.3447C15.6953 53.4621 15.8217 53.6095 15.9145 53.7777C16.1582 54.1482 16.4118 54.5188 16.6751 54.8796C16.8883 55.1826 16.9731 55.5576 16.911 55.9229C16.8489 56.2882 16.6449 56.6142 16.3435 56.8297C16.1182 57.0023 15.8467 57.1041 15.5634 57.1223ZM64.7376 52.3443C64.5389 52.3444 64.3425 52.3012 64.1623 52.2175C63.9871 52.141 63.8292 52.0297 63.6983 51.8905C63.5673 51.7512 63.4659 51.5868 63.4003 51.4072C63.3347 51.2277 63.3062 51.0367 63.3164 50.8458C63.3267 50.6549 63.3756 50.4681 63.4602 50.2966C63.6422 49.9001 63.8177 49.4905 63.9867 49.068C64.1365 48.7336 64.4109 48.471 64.7516 48.3361C65.0923 48.2013 65.4722 48.205 65.8102 48.3464C66.1559 48.4874 66.4324 48.7585 66.5802 49.1014C66.7279 49.4443 66.735 49.8315 66.6 50.1796C66.4147 50.6281 66.2197 51.0864 66.0247 51.5252C65.9081 51.7669 65.7252 51.9704 65.4973 52.112C65.2694 52.2536 65.0059 52.3274 64.7376 52.3248V52.3443ZM12.7649 52.2468C12.4888 52.251 12.2176 52.1737 11.9852 52.0245C11.7527 51.8754 11.5695 51.661 11.4583 51.4082C11.2535 50.9597 11.0682 50.5111 10.883 50.0528C10.7459 49.7063 10.7521 49.3195 10.9002 48.9775C11.0484 48.6356 11.3263 48.3665 11.6728 48.2294C12.0193 48.0923 12.4061 48.0985 12.7481 48.2467C13.0901 48.3948 13.3592 48.6727 13.4962 49.0192C13.662 49.4385 13.8375 49.8481 14.0228 50.2576C14.1739 50.5977 14.1838 50.9839 14.0503 51.3312C13.9168 51.6786 13.6509 51.9588 13.311 52.1103C13.1407 52.194 12.9546 52.2406 12.7649 52.2468ZM66.5415 47.0203H66.2295C66.0494 46.9789 65.8793 46.9024 65.7289 46.7952C65.5784 46.6879 65.4506 46.5521 65.3528 46.3954C65.255 46.2387 65.189 46.0642 65.1588 45.8819C65.1285 45.6997 65.1345 45.5133 65.1763 45.3334C65.2739 44.9043 65.3616 44.4655 65.4396 44.0267C65.5043 43.6595 65.7122 43.333 66.0176 43.119C66.3229 42.9051 66.7008 42.8212 67.068 42.8859C67.4353 42.9505 67.7618 43.1584 67.9757 43.4638C68.1897 43.7692 68.2736 44.147 68.2089 44.5143C68.1211 45.0018 68.0236 45.4894 67.9164 45.9672C67.8361 46.2693 67.6572 46.536 67.4082 46.725C67.1591 46.914 66.8541 47.0145 66.5415 47.0105V47.0203ZM10.961 46.9228C10.643 46.9237 10.3343 46.8158 10.086 46.6172C9.83772 46.4186 9.66478 46.1411 9.59585 45.8307C9.47884 45.3529 9.38133 44.8556 9.29357 44.3875C9.26156 44.2057 9.26567 44.0193 9.30568 43.8391C9.34569 43.6588 9.42081 43.4882 9.52675 43.337C9.63268 43.1858 9.76737 43.0569 9.92311 42.9578C10.0789 42.8586 10.2526 42.7911 10.4344 42.7591C10.6163 42.7271 10.8026 42.7312 10.9829 42.7712C11.1631 42.8112 11.3337 42.8863 11.4849 42.9923C11.6361 43.0982 11.765 43.2329 11.8642 43.3886C11.9633 43.5444 12.0308 43.7181 12.0628 43.9C12.1409 44.3388 12.2286 44.7775 12.3261 45.2066C12.368 45.3865 12.374 45.5729 12.3437 45.7552C12.3134 45.9374 12.2475 46.1119 12.1497 46.2686C12.0518 46.4253 11.924 46.5612 11.7736 46.6684C11.6232 46.7756 11.4531 46.8521 11.273 46.8935C11.1763 46.9085 11.0784 46.915 10.9805 46.913L10.961 46.9228ZM66.9023 35.8554C66.5713 35.8578 66.2503 35.7424 65.9966 35.5298C65.743 35.3172 65.5732 35.0213 65.5176 34.6951C65.4396 34.2465 65.3616 33.8175 65.2641 33.3787C65.1801 33.014 65.2443 32.6309 65.4427 32.3137C65.6411 31.9964 65.9575 31.7709 66.3221 31.6869C66.6867 31.6028 67.0698 31.6671 67.3871 31.8655C67.7044 32.0639 67.9298 32.3802 68.0139 32.7449C68.1211 33.2227 68.2187 33.72 68.2967 34.188C68.3273 34.3705 68.3216 34.5573 68.2798 34.7376C68.238 34.918 68.161 35.0882 68.0531 35.2387C67.9453 35.3891 67.8088 35.5167 67.6514 35.6142C67.4941 35.7117 67.319 35.7771 67.1363 35.8067L66.9023 35.8554ZM10.6685 35.7579H10.4344C10.2526 35.7272 10.0786 35.661 9.92234 35.563C9.7661 35.465 9.63069 35.3372 9.52384 35.1869C9.417 35.0366 9.34081 34.8667 9.29962 34.687C9.25844 34.5072 9.25307 34.3211 9.28382 34.1392C9.36183 33.6517 9.45934 33.1642 9.55685 32.6864C9.59654 32.5058 9.67141 32.3348 9.77718 32.1832C9.88295 32.0316 10.0175 31.9023 10.1733 31.8027C10.329 31.7031 10.5029 31.6351 10.6849 31.6027C10.8669 31.5703 11.0535 31.5741 11.234 31.6137C11.4146 31.6534 11.5855 31.7283 11.7371 31.8341C11.8888 31.9398 12.0181 32.0744 12.1177 32.2302C12.2173 32.3859 12.2852 32.5598 12.3176 32.7418C12.3501 32.9238 12.3463 33.1104 12.3066 33.2909C12.2091 33.7297 12.1213 34.1588 12.0531 34.6073C11.9919 34.9301 11.8202 35.2215 11.5676 35.4315C11.3149 35.6414 10.997 35.7569 10.6685 35.7579ZM65.4396 30.4339C65.1524 30.4365 64.8712 30.351 64.6341 30.1889C64.3969 30.0267 64.2152 29.7957 64.1135 29.527C63.9575 29.1175 63.7917 28.6982 63.6162 28.2887C63.4747 27.9486 63.4726 27.5665 63.6102 27.2248C63.7478 26.8831 64.0142 26.6092 64.3519 26.4621C64.6896 26.315 65.0716 26.3065 65.4155 26.4384C65.7594 26.5703 66.0377 26.8321 66.1905 27.1673C66.3855 27.6159 66.5707 28.0741 66.7463 28.5324C66.8763 28.8817 66.8632 29.2681 66.7098 29.6078C66.5564 29.9474 66.2752 30.2128 65.9272 30.3461C65.7707 30.4025 65.6059 30.4322 65.4396 30.4339ZM12.1409 30.3461C11.9671 30.3469 11.7949 30.3138 11.6338 30.2486C11.4616 30.1828 11.3042 30.0835 11.1706 29.9565C11.0371 29.8295 10.93 29.6772 10.8556 29.5086C10.7813 29.3399 10.7411 29.1582 10.7374 28.9739C10.7338 28.7896 10.7667 28.6064 10.8342 28.4349C11.0097 27.9766 11.195 27.5183 11.39 27.0698C11.5413 26.7284 11.822 26.4611 12.1704 26.3267C12.5187 26.1923 12.9062 26.2018 13.2476 26.3531C13.589 26.5044 13.8562 26.7851 13.9906 27.1335C14.1251 27.4818 14.1156 27.8693 13.9643 28.2107C13.7888 28.6105 13.6132 29.0297 13.4572 29.4393C13.3561 29.7064 13.1759 29.9363 12.9407 30.0983C12.7055 30.2603 12.4265 30.3468 12.1409 30.3461ZM62.9434 25.4121C62.706 25.4127 62.4724 25.353 62.2644 25.2388C62.0564 25.1245 61.8807 24.9594 61.7538 24.7588C61.51 24.3785 61.2662 23.9982 61.0127 23.6375C60.9064 23.4864 60.8309 23.3158 60.7906 23.1355C60.7502 22.9553 60.7457 22.7688 60.7774 22.5868C60.8091 22.4048 60.8763 22.2308 60.9753 22.0748C61.0742 21.9188 61.2029 21.7838 61.354 21.6775C61.5051 21.5712 61.6756 21.4958 61.8559 21.4554C62.0362 21.415 62.2226 21.4105 62.4046 21.4422C62.5866 21.4739 62.7606 21.5412 62.9166 21.6401C63.0726 21.739 63.2076 21.8677 63.3139 22.0188C63.5934 22.4283 63.8665 22.8379 64.133 23.2474C64.233 23.4045 64.3008 23.5799 64.3324 23.7634C64.364 23.947 64.3588 24.1349 64.3171 24.3164C64.2753 24.4979 64.1979 24.6693 64.0893 24.8206C63.9807 24.9719 63.8431 25.1 63.6845 25.1976C63.4632 25.3389 63.2059 25.4134 62.9434 25.4121ZM14.6566 25.3341C14.405 25.3347 14.1579 25.2676 13.9411 25.14C13.7243 25.0124 13.5458 24.8288 13.4242 24.6086C13.3027 24.3884 13.2425 24.1395 13.25 23.888C13.2575 23.6366 13.3325 23.3917 13.467 23.1792C13.727 22.7631 14 22.3536 14.2861 21.9505C14.3885 21.791 14.5222 21.6538 14.6791 21.5473C14.836 21.4408 15.0129 21.3671 15.199 21.3308C15.3851 21.2946 15.5767 21.2963 15.7621 21.3361C15.9475 21.3759 16.123 21.4528 16.2778 21.5622C16.4327 21.6716 16.5639 21.8112 16.6633 21.9727C16.7627 22.1342 16.8284 22.3141 16.8565 22.5017C16.8845 22.6892 16.8742 22.8805 16.8263 23.064C16.7783 23.2475 16.6937 23.4193 16.5775 23.5692C16.324 23.9332 16.0802 24.3038 15.8462 24.6808C15.7173 24.8795 15.5412 25.0432 15.3336 25.1572C15.126 25.2712 14.8934 25.332 14.6566 25.3341ZM55.2791 17.2896C54.9849 17.2924 54.6976 17.2001 54.46 17.0263C54.0993 16.7728 53.7385 16.529 53.3582 16.2852C53.044 16.0848 52.8222 15.7678 52.7418 15.4039C52.6613 15.04 52.7287 14.659 52.9291 14.3448C53.1296 14.0306 53.4466 13.8089 53.8105 13.7284C54.1744 13.6479 54.5554 13.7153 54.8696 13.9157C55.2889 14.179 55.6984 14.4618 56.0982 14.7446C56.3397 14.9179 56.5201 15.1634 56.6132 15.4457C56.7063 15.728 56.7073 16.0326 56.6163 16.3156C56.5252 16.5986 56.3466 16.8454 56.1063 17.0204C55.8661 17.1954 55.5764 17.2897 55.2791 17.2896ZM22.3501 17.2896C22.1216 17.2848 21.8978 17.2235 21.6988 17.1112C21.4997 16.9989 21.3315 16.8391 21.2092 16.646C20.996 16.343 20.9112 15.9679 20.9733 15.6026C21.0354 15.2373 21.2394 14.9114 21.5408 14.6958C21.9438 14.4098 22.3534 14.1368 22.7694 13.8767C22.9249 13.7678 23.1009 13.6914 23.2867 13.6524C23.4725 13.6134 23.6644 13.6124 23.8506 13.6497C24.0368 13.6869 24.2135 13.7615 24.37 13.869C24.5266 13.9764 24.6597 14.1145 24.7613 14.2749C24.863 14.4353 24.9311 14.6147 24.9614 14.8021C24.9918 14.9896 24.9838 15.1812 24.938 15.3655C24.8921 15.5497 24.8094 15.7228 24.6948 15.8742C24.5801 16.0256 24.436 16.1521 24.2711 16.2462C23.9005 16.49 23.53 16.7338 23.1692 16.9971C22.9258 17.1564 22.6411 17.2412 22.3501 17.2408V17.2896ZM50.4621 14.5106C50.2633 14.5116 50.0668 14.4683 49.8868 14.3838L48.6582 13.867C48.4658 13.8198 48.2855 13.7323 48.1292 13.6104C47.973 13.4886 47.8443 13.335 47.7517 13.1598C47.659 12.9846 47.6045 12.7918 47.5917 12.5941C47.5789 12.3963 47.6081 12.1981 47.6774 12.0124C47.7466 11.8268 47.8544 11.6579 47.9936 11.5169C48.1329 11.3758 48.3003 11.2659 48.4851 11.1942C48.6698 11.1226 48.8677 11.0908 49.0656 11.1011C49.2635 11.1113 49.457 11.1634 49.6333 11.2537C50.0916 11.4293 50.5402 11.6243 50.9887 11.8193C51.282 11.9469 51.5229 12.1708 51.6716 12.454C51.8203 12.7371 51.8679 13.0626 51.8065 13.3764C51.7451 13.6903 51.5783 13.9738 51.3339 14.1801C51.0894 14.3863 50.7819 14.5029 50.4621 14.5106ZM27.2743 14.5106C26.9505 14.5139 26.6354 14.4051 26.3826 14.2027C26.1297 14.0003 25.9546 13.7167 25.8869 13.4C25.8192 13.0833 25.8631 12.7529 26.0111 12.4648C26.1591 12.1767 26.4021 11.9487 26.699 11.8193C27.1476 11.6243 27.6059 11.4293 28.0642 11.2537C28.4033 11.1592 28.7655 11.1954 29.0791 11.3553C29.3927 11.5152 29.6349 11.787 29.7575 12.117C29.8802 12.4469 29.8744 12.8109 29.7414 13.1369C29.6084 13.4628 29.3578 13.7269 29.0393 13.8767C28.62 14.0328 28.2104 14.2083 27.8009 14.3838C27.618 14.4553 27.4215 14.4853 27.2256 14.4716L27.2743 14.5106ZM45.0991 12.7359C44.9956 12.7508 44.8906 12.7508 44.7871 12.7359L43.4707 12.4726C43.2797 12.4516 43.0951 12.3917 42.9282 12.2965C42.7613 12.2013 42.6157 12.0728 42.5005 11.9191C42.3853 11.7653 42.3028 11.5896 42.2582 11.4027C42.2136 11.2158 42.2079 11.0218 42.2413 10.8326C42.2747 10.6434 42.3466 10.463 42.4525 10.3027C42.5585 10.1424 42.6962 10.0056 42.8571 9.90065C43.0181 9.79572 43.1988 9.72492 43.3882 9.69266C43.5776 9.6604 43.7716 9.66735 43.9583 9.71308C44.4458 9.79109 44.9333 9.8886 45.4014 9.99586C45.7433 10.0666 46.0466 10.2622 46.2521 10.5445C46.4576 10.8268 46.5505 11.1756 46.5127 11.5227C46.475 11.8698 46.3092 12.1904 46.0479 12.4219C45.7865 12.6534 45.4482 12.7793 45.0991 12.7749V12.7359ZM32.5496 12.7359C32.208 12.7297 31.8804 12.5992 31.6282 12.3688C31.3759 12.1384 31.2163 11.824 31.1792 11.4843C31.1421 11.1447 31.2301 10.8032 31.4268 10.5238C31.6234 10.2445 31.9151 10.0463 32.2473 9.96661C32.7251 9.85935 33.2224 9.76184 33.6905 9.67408C34.0589 9.61181 34.4369 9.69788 34.742 9.91347C35.0472 10.1291 35.2546 10.4567 35.3189 10.8247C35.351 11.0067 35.3466 11.1932 35.306 11.3735C35.2653 11.5537 35.1893 11.7241 35.0822 11.8747C34.9751 12.0253 34.8392 12.1532 34.6823 12.2508C34.5254 12.3484 34.3507 12.4139 34.1683 12.4434C33.7295 12.5214 33.2907 12.6091 32.8617 12.7066C32.7579 12.7163 32.6534 12.7163 32.5496 12.7066V12.7359Z" fill="#063649" stroke="white" mask="url(#path-2-inside-1_149_253)"/>
<path d="M45.9474 50.5111C43.0992 52.3202 39.6762 52.9959 36.3542 52.4048C33.0322 51.8136 30.0525 49.9986 28.0032 47.318C25.954 44.6373 24.9841 41.2859 25.285 37.9251C25.5859 34.5644 27.1357 31.4385 29.6286 29.1645C32.1215 26.8906 35.3762 25.6338 38.7504 25.6422C42.1246 25.6506 45.3731 26.9236 47.8546 29.2099C50.3361 31.4963 51.8703 34.6298 52.1545 37.992C52.4387 41.3543 51.4521 44.7009 49.3895 47.3712" stroke="#063649" stroke-width="2.5" stroke-linecap="round" stroke-linejoin="round"/>
<path d="M30.4922 38.5856V39.5705" stroke="#063649" stroke-width="2.5" stroke-linecap="round" stroke-linejoin="round"/>
<path d="M46.5815 38.5856V39.5705" stroke="#063649" stroke-width="2.5" stroke-linecap="round" stroke-linejoin="round"/>
<path d="M43.2661 36.3819C43.2661 36.3819 43.2661 33.0861 38.6051 33.0861C37.6361 33.0285 36.6804 33.3344 35.9249 33.9438C35.1693 34.5533 34.6682 35.4227 34.5195 36.3819C34.5195 36.3819 33.9539 39.5705 38.4784 39.5705C38.4784 39.5705 43.2271 39.1414 43.2271 41.8132C43.2271 44.0559 41.9009 45.5088 38.8684 45.5088C34.968 45.5088 34.3147 42.3398 34.3147 42.3398" stroke="#063649" stroke-width="2.5" stroke-linecap="round" stroke-linejoin="round"/>
<path d="M38.9072 30.3363V32.7253" stroke="#063649" stroke-width="2.5" stroke-linecap="round" stroke-linejoin="round"/>
<path d="M38.9072 45.8599V48.2391" stroke="#063649" stroke-width="2.5" stroke-linecap="round" stroke-linejoin="round"/>
<path d="M39.0049 15.3881V4.43774" stroke="#063649" stroke-width="2.5" stroke-linecap="round" stroke-linejoin="round"/>
<path d="M36.4502 7.10951L39.0049 2L41.5597 7.10951" stroke="#063649" stroke-width="2.5" stroke-linecap="round" stroke-linejoin="round"/>
<path d="M39.0049 62.6119V73.572" stroke="#063649" stroke-width="2.5" stroke-linecap="round" stroke-linejoin="round"/>
<path d="M41.5597 70.8906L39.0049 76.0001L36.4502 70.8906" stroke="#063649" stroke-width="2.5" stroke-linecap="round" stroke-linejoin="round"/>
<path d="M62.6121 39.0049H73.5721" stroke="#063649" stroke-width="2.5" stroke-linecap="round" stroke-linejoin="round"/>
<path d="M70.8906 36.4501L76.0001 39.0049L70.8906 41.5596" stroke="#063649" stroke-width="2.5" stroke-linecap="round" stroke-linejoin="round"/>
<path d="M15.3881 39.0049H4.43774" stroke="#063649" stroke-width="2.5" stroke-linecap="round" stroke-linejoin="round"/>
<path d="M7.10951 41.5596L2 39.0049L7.10951 36.4501" stroke="#063649" stroke-width="2.5" stroke-linecap="round" stroke-linejoin="round"/>
<path d="M55.6985 55.6986L63.4408 63.4409" stroke="#063649" stroke-width="2.5" stroke-linecap="round" stroke-linejoin="round"/>
<path d="M63.353 59.7452L65.1667 65.1668L59.7451 63.3531" stroke="#063649" stroke-width="2.5" stroke-linecap="round" stroke-linejoin="round"/>
<path d="M22.3016 22.3015L14.5593 14.5593" stroke="#063649" stroke-width="2.5" stroke-linecap="round" stroke-linejoin="round"/>
<path d="M14.6469 18.2645L12.8333 12.8333L18.2645 14.6469" stroke="#063649" stroke-width="2.5" stroke-linecap="round" stroke-linejoin="round"/>
<path d="M22.3016 55.6986L14.5593 63.4409" stroke="#063649" stroke-width="2.5" stroke-linecap="round" stroke-linejoin="round"/>
<path d="M18.2645 63.3531L12.8333 65.1668L14.6469 59.7452" stroke="#063649" stroke-width="2.5" stroke-linecap="round" stroke-linejoin="round"/>
<path d="M55.6985 22.3015L63.4408 14.5593" stroke="#063649" stroke-width="2.5" stroke-linecap="round" stroke-linejoin="round"/>
<path d="M59.7451 14.6469L65.1667 12.8333L63.353 18.2645" stroke="#063649" stroke-width="2.5" stroke-linecap="round" stroke-linejoin="round"/>
</svg>
